Coordinates
version=1
nRows=29
nColumns=24
inDegrees=yes

Units are S.I. units (second, meters, Newtons, ...)
Angles are in degrees.

endheader
time	pelvis_tilt	pelvis_list	pelvis_rotation	pelvis_tx	pelvis_ty	pelvis_tz	hip_flexion_r	hip_adduction_r	hip_rotation_r	knee_angle_r	ankle_angle_r	subtalar_angle_r	mtp_angle_r	hip_flexion_l	hip_adduction_l	hip_rotation_l	knee_angle_l	ankle_angle_l	subtalar_angle_l	mtp_angle_l	lumbar_extension	lumbar_bending	lumbar_rotation
      5.55500000	     37.22454502	      3.25984188	      6.66624890	      0.86309791	      0.65380637	     -0.27754470	    -17.52450665	      0.87245369	     -7.72034385	     -2.85952247	      7.82730306	      3.04452757	      0.00000000	    -50.34856069	     -3.60811802	     -0.28006456	    -24.45729610	     22.78769689	     11.94900991	      0.00000000	    -66.20383206	      1.93043629	     -7.70820278
      5.56000000	     37.30948124	      2.91735576	      6.66201102	      0.86864564	      0.65361666	     -0.27708106	    -17.25746959	      1.32994846	     -6.74044427	     -4.25555938	      7.07916700	      2.40732044	      0.00000000	    -50.04494926	     -3.95346230	     -0.33874925	    -26.21523891	     21.98459938	     11.83374295	      0.00000000	    -66.25966299	      2.20913060	     -7.47962569
      5.56500000	     37.39996258	      2.57890162	      6.73526984	      0.87425941	      0.65350470	     -0.27667156	    -17.05085224	      1.82087347	     -5.91374799	     -5.60710682	      6.36110289	      1.88714010	      0.00000000	    -49.68495366	     -4.34885257	     -0.35074780	    -28.05393566	     21.01757778	     11.64102987	      0.00000000	    -66.30970155	      2.52944077	     -7.18088273
      5.57000000	     37.45250608	      2.24386228	      6.77097859	      0.87985721	      0.65342465	     -0.27621066	    -16.81779802	      2.30350741	     -5.08699127	     -6.94543463	      5.70544986	      1.37607693	      0.00000000	    -49.21574881	     -4.70666266	     -0.40937934	    -29.98340733	     19.88811270	     11.43312871	      0.00000000	    -66.32546320	      2.81280604	     -6.88740866
      5.57500000	     37.57066813	      1.90068756	      6.92503273	      0.88559672	      0.65344298	     -0.27587674	    -16.76161750	      2.84726024	     -4.48670070	     -8.14623271	      5.18037785	      0.97136165	      0.00000000	    -48.77415690	     -5.15777156	     -0.42292878	    -31.94647427	     18.56632326	     11.05726132	      0.00000000	    -66.36108566	      3.20276289	     -6.57413195
      5.58000000	     37.62638056	      1.57156219	      7.00232918	      0.89122547	      0.65346034	     -0.27542095	    -16.62598365	      3.35679841	     -3.82797899	     -9.35522259	      4.74010165	      0.49401089	      0.00000000	    -48.18696210	     -5.54015319	     -0.53023385	    -33.99483572	     17.10651507	     10.63857235	      0.00000000	    -66.36426866	      3.50264112	     -6.32876579
      5.58500000	     37.54006057	      1.26067996	      6.96478698	      0.89675633	      0.65346254	     -0.27483670	    -16.33024920	      3.79808234	     -3.14666055	    -10.56386890	      4.42740328	      0.05293243	      0.00000000	    -47.36399016	     -5.81682852	     -0.74271539	    -36.12746391	     15.46838452	     10.21361051	      0.00000000	    -66.26315704	      3.68410497	     -6.08624554
      5.59000000	     37.68148116	      0.90400087	      7.12276193	      0.90244657	      0.65363056	     -0.27455112	    -16.44988149	      4.36061872	     -2.78156876	    -11.51065622	      4.25989555	     -0.20492721	      0.00000000	    -46.77859851	     -6.27704589	     -0.88767544	    -38.20219243	     13.71396284	      9.53262730	      0.00000000	    -66.32261027	      4.10010763	     -5.81095513
      5.59500000	     37.73232946	      0.59219589	      7.23560790	      0.90804147	      0.65380872	     -0.27414908	    -16.47851311	      4.86447567	     -2.36609503	    -12.44746398	      4.21525936	     -0.55882674	      0.00000000	    -46.02602505	     -6.66743579	     -1.05687043	    -40.30316249	     11.81510853	      8.70672098	      0.00000000	    -66.31402555	      4.41771743	     -5.61472685
      5.60000000	     37.73965838	      0.28429232	      7.33716152	      0.91362794	      0.65403040	     -0.27372992	    -16.51706228	      5.35257928	     -2.01203756	    -13.28559529	      4.30765212	     -0.84142928	      0.00000000	    -45.18208627	     -7.04835150	     -1.26097848	    -42.39131217	      9.81180206	      7.78121939	      0.00000000	    -66.26264927	      4.71497607	     -5.41482716
      5.60500000	     37.52642023	      0.04848527	      7.35853447	      0.91913503	      0.65420210	     -0.27320620	    -16.31913872	      5.71283276	     -1.63864491	    -14.13270929	      4.63210553	     -1.07048199	      0.00000000	    -44.02527649	     -7.29340815	     -1.44983224	    -44.50732988	      7.72797562	      6.78580041	      0.00000000	    -66.01460294	      4.87728759	     -5.31935636
      5.61000000	     37.62574193	     -0.31204858	      7.52099367	      0.92474302	      0.65458540	     -0.27291712	    -16.61409221	      6.26831111	     -1.48143825	    -14.68837388	      4.87975703	     -1.23715392	      0.00000000	    -43.24866630	     -7.77072654	     -1.72201446	    -46.45897943	      5.71286354	      5.62365327	      0.00000000	    -66.02517183	      5.26473232	     -5.05475481
      5.61500000	     37.48282117	     -0.51267517	      7.58848171	      0.93015075	      0.65492530	     -0.27252873	    -16.63843022	      6.59191698	     -1.30702306	    -15.28099733	      5.40217314	     -1.30547008	      0.00000000	    -42.11996171	     -8.00691982	     -1.88647023	    -48.43225433	      3.65498103	      4.29386596	      0.00000000	    -65.85298526	      5.47379313	     -5.02791367
      5.62000000	     37.51233266	     -0.81901822	      7.71818582	      0.93560543	      0.65540336	     -0.27227252	    -16.94896616	      7.05561835	     -1.18727024	    -15.67309258	      5.82646336	     -1.35344283	      0.00000000	    -41.21100061	     -8.38727903	     -2.12503930	    -50.26433982	      1.79469488	      2.90647615	      0.00000000	    -65.82267781	      5.81408361	     -4.84541312
      5.62500000	     37.42104791	     -1.02811647	      7.81033130	      0.94101671	      0.65590936	     -0.27193064	    -17.16922070	      7.38374631	     -1.20508341	    -16.01737830	      6.44247082	     -1.27547333	      0.00000000	    -40.14886794	     -8.65616823	     -2.33650119	    -52.01742111	      0.02093784	      1.46464364	      0.00000000	    -65.68048200	      6.03185086	     -4.78808753
      5.63000000	     37.43255255	     -1.28448888	      7.90524476	      0.94636895	      0.65652321	     -0.27168321	    -17.56302511	      7.76277005	     -1.18720851	    -16.22888804	      6.96067308	     -1.16486213	      0.00000000	    -39.21865498	     -8.95639542	     -2.57412672	    -53.64999712	     -1.47148426	      0.01523288	      0.00000000	    -65.64552275	      6.30582325	     -4.64954614
      5.63500000	     37.36284770	     -1.46153417	      7.97098600	      0.95171049	      0.65717791	     -0.27140460	    -17.91632769	      8.02696292	     -1.30551942	    -16.38122141	      7.62969669	     -0.91836097	      0.00000000	    -38.20553308	     -9.15902386	     -2.79117428	    -55.17472279	     -2.74755232	     -1.42820057	      0.00000000	    -65.52664110	      6.48951610	     -4.60042693
      5.64000000	     37.38583659	     -1.68240373	      8.00475313	      0.95698359	      0.65793928	     -0.27115272	    -18.41617471	      8.32741613	     -1.40488750	    -16.42610811	      8.14705545	     -0.67142749	      0.00000000	    -37.32954958	     -9.38029139	     -3.07920559	    -56.56591557	     -3.68485035	     -2.78480878	      0.00000000	    -65.51532922	      6.68837422	     -4.45485987
      5.64500000	     37.31592719	     -1.77802720	      8.01937066	      0.96222254	      0.65872752	     -0.27092151	    -18.85698749	      8.46442584	     -1.56866973	    -16.43707187	      8.85967674	     -0.19766281	      0.00000000	    -36.35173438	     -9.43931643	     -3.25417617	    -57.85942143	     -4.33400590	     -4.07507429	      0.00000000	    -65.40674246	      6.78488909	     -4.46088501
      5.65000000	     37.29281351	     -1.88407722	      7.99222380	      0.96741200	      0.65960420	     -0.27069808	    -19.38422123	      8.59263279	     -1.74824766	    -16.37281589	      9.45497612	      0.28623790	      0.00000000	    -35.46420768	     -9.47831454	     -3.48916595	    -59.01594001	     -4.64760605	     -5.22518375	      0.00000000	    -65.35721650	      6.86064720	     -4.40788811
      5.65500000	     37.30741739	     -1.98789126	      7.90700152	      0.97258208	      0.66056189	     -0.27046438	    -19.98696514	      8.69150544	     -1.93000970	    -16.24719860	      9.98725051	      0.81112905	      0.00000000	    -34.66513472	     -9.47764503	     -3.78926911	    -60.02584826	     -4.66944452	     -6.22451131	      0.00000000	    -65.34797118	      6.88874738	     -4.30175197
      5.66000000	     37.30637747	     -2.02748804	      7.77482564	      0.97776069	      0.66156827	     -0.27026560	    -20.61359915	      8.69037583	     -2.09653515	    -16.07361988	     10.56646193	      1.46679481	      0.00000000	    -33.89154260	     -9.36010659	     -4.06880577	    -60.89551569	     -4.37092367	     -7.07049918	      0.00000000	    -65.31304640	      6.84651133	     -4.23738247
      5.66500000	     37.30434371	     -2.00791073	      7.60057973	      0.98281241	      0.66260079	     -0.27003114	    -21.23148612	      8.60392110	     -2.29716631	    -15.91532884	     11.16321357	      2.18851308	      0.00000000	    -33.12289935	     -9.16231299	     -4.35765424	    -61.66467005	     -3.83625634	     -7.68772308	      0.00000000	    -65.30822829	      6.72985563	     -4.23026616
      5.67000000	     37.27733892	     -1.93375494	      7.38479049	      0.98782284	      0.66368247	     -0.26980266	    -21.83910136	      8.42641708	     -2.58071096	    -15.72839469	     11.67878892	      2.95909417	      0.00000000	    -32.35495342	     -8.87655178	     -4.65995674	    -62.29879940	     -3.07559799	     -8.13647083	      0.00000000	    -65.28922044	      6.53762907	     -4.23364674
      5.67500000	     37.27491900	     -1.85211233	      7.14939017	      0.99282615	      0.66475837	     -0.26956927	    -22.48185314	      8.24325975	     -2.74645495	    -15.52920508	     12.21278046	      3.65852405	      0.00000000	    -31.63470468	     -8.57120223	     -4.97893951	    -62.82725007	     -2.13924311	     -8.38992898	      0.00000000	    -65.28876944	      6.33498566	     -4.24852164
      5.68000000	     37.25519282	     -1.72629051	      6.87009122	      0.99779588	      0.66586074	     -0.26934558	    -23.11415401	      7.98050028	     -2.95171034	    -15.31389666	     12.70094161	      4.42964471	      0.00000000	    -30.91910079	     -8.18990123	     -5.31812265	    -63.22637981	     -1.08556930	     -8.46740167	      0.00000000	    -65.27942478	      6.06771427	     -4.25443479
      5.68500000	     37.22612437	     -1.57668077	      6.56843298	      1.00273666	      0.66695587	     -0.26914450	    -23.73671584	      7.67586649	     -3.15898769	    -15.09168340	     13.14992843	      5.20435023	      0.00000000	    -30.20259592	     -7.76750962	     -5.67051567	    -63.52393182	      0.03001621	     -8.37564937	      0.00000000	    -65.26200021	      5.76978785	     -4.26299706
      5.69000000	     37.18977782	     -1.40891889	      6.25880681	      1.00765159	      0.66802305	     -0.26894504	    -24.34910841	      7.34877727	     -3.34106041	    -14.86526962	     13.57806031	      5.94268875	      0.00000000	    -29.48030985	     -7.32658508	     -6.02973509	    -63.73196493	      1.17775106	     -8.12985347	      0.00000000	    -65.24385892	      5.45447525	     -4.27614234
      5.69500000	     37.14592302	     -1.22893350	      5.94751504	      1.01253918	      0.66904975	     -0.26875993	    -24.94883762	      7.00840670	     -3.49575840	    -14.63542391	     13.98681806	      6.63818886	      0.00000000	    -28.74664219	     -6.87701580	     -6.39448878	    -63.85992955	      2.32377690	     -7.73876087	      0.00000000	    -65.22121328	      5.13103301	     -4.29076447
